<?xml version="1.0" standalone="no"?>
<!DOCTYPE svg PUBLIC "-//W3C//DTD SVG 20010904//EN"
 "http://www.w3.org/TR/2001/REC-SVG-20010904/DTD/svg10.dtd">
<svg version="1.0" xmlns="http://www.w3.org/2000/svg"
 width="349.000000pt" height="351.000000pt" viewBox="0 0 349.000000 351.000000"
 preserveAspectRatio="xMidYMid meet">

<g transform="translate(0.000000,351.000000) scale(0.100000,-0.100000)"
fill="#000000" stroke="none">
<path d="M214 3484 c-67 -35 -146 -115 -180 -183 l-29 -56 -3 -1478 -2 -1479
30 -64 c38 -79 112 -153 193 -194 l60 -30 1476 0 1476 0 52 24 c57 27 131 90
175 150 l28 39 0 1542 0 1541 -28 45 c-36 56 -109 121 -167 148 l-45 21 -1493
0 -1494 0 -49 -26z m2984 -203 c42 -22 63 -43 86 -88 15 -30 16 -156 14 -1447
l-3 -1414 -31 -38 c-16 -21 -48 -47 -70 -58 -39 -21 -45 -21 -1404 -24 -965
-2 -1381 1 -1418 9 -61 12 -110 50 -138 107 -18 36 -19 92 -19 1432 l0 1395
21 40 c24 45 45 65 89 88 27 15 172 16 1433 17 1357 0 1404 -1 1440 -19z"/>
<path d="M1682 1991 c-103 -36 -165 -123 -166 -231 -1 -221 262 -330 418 -174
97 98 96 247 -2 345 -34 34 -62 51 -101 63 -68 20 -83 20 -149 -3z"/>
</g>
</svg>
