<?xml version="1.0" standalone="no"?>
<!DOCTYPE svg PUBLIC "-//W3C//DTD SVG 20010904//EN"
 "http://www.w3.org/TR/2001/REC-SVG-20010904/DTD/svg10.dtd">
<svg version="1.0" xmlns="http://www.w3.org/2000/svg"
 width="354.000000pt" height="356.000000pt" viewBox="0 0 354.000000 356.000000"
 preserveAspectRatio="xMidYMid meet">

<g transform="translate(0.000000,356.000000) scale(0.100000,-0.100000)"
fill="#000000" stroke="none">
<path d="M268 3541 c-104 -41 -185 -116 -235 -219 l-28 -57 -3 -1450 c-2
-1316 -1 -1454 14 -1500 32 -100 115 -199 203 -244 102 -53 48 -51 1551 -51
1525 0 1452 -3 1563 57 62 34 138 117 174 191 l28 57 0 1470 0 1470 -28 57
c-42 85 -116 161 -195 200 l-67 33 -1465 2 c-1401 2 -1467 1 -1512 -16z m2943
-224 c29 -16 54 -40 74 -72 l30 -48 0 -1401 0 -1401 -23 -42 c-12 -24 -41 -55
-64 -70 l-42 -28 -1406 -3 -1406 -2 -45 23 c-29 16 -54 40 -74 72 l-30 48 0
1402 0 1402 30 48 c20 32 45 56 74 72 l44 23 1397 0 1397 0 44 -23z"/>
<path d="M1089 2673 c-15 -2 -51 -18 -80 -36 -183 -110 -147 -384 60 -444 120
-35 249 27 297 143 48 114 -18 273 -131 319 -36 15 -110 24 -146 18z"/>
<path d="M2345 1401 c-50 -13 -91 -38 -127 -81 -107 -124 -60 -323 92 -388 57
-25 146 -20 207 11 195 100 169 390 -41 452 -53 16 -83 17 -131 6z"/>
</g>
</svg>
