<?xml version="1.0" standalone="no"?>
<!DOCTYPE svg PUBLIC "-//W3C//DTD SVG 20010904//EN"
 "http://www.w3.org/TR/2001/REC-SVG-20010904/DTD/svg10.dtd">
<svg version="1.0" xmlns="http://www.w3.org/2000/svg"
 width="354.000000pt" height="357.000000pt" viewBox="0 0 354.000000 357.000000"
 preserveAspectRatio="xMidYMid meet">

<g transform="translate(0.000000,357.000000) scale(0.100000,-0.100000)"
fill="#000000" stroke="none">
<path d="M331 3549 c-124 -24 -243 -115 -298 -226 l-28 -58 0 -1480 0 -1480
28 -56 c36 -74 92 -137 158 -176 111 -66 29 -63 1566 -63 980 0 1408 3 1445
11 119 25 244 123 293 232 14 29 29 84 35 122 14 97 13 2738 -1 2824 -19 123
-86 223 -192 292 -112 73 -33 69 -1579 68 -761 -1 -1403 -5 -1427 -10z m2840
-231 c57 -19 90 -49 115 -102 l24 -51 0 -1370 c0 -960 -3 -1382 -11 -1410 -16
-57 -55 -104 -105 -126 -41 -19 -88 -19 -1447 -17 l-1404 3 -41 29 c-23 16
-50 46 -62 70 -20 42 -20 55 -20 1439 0 1524 -4 1433 58 1490 62 59 -13 56
1483 57 1014 0 1385 -3 1410 -12z"/>
<path d="M960 2771 c-46 -15 -85 -39 -117 -73 -115 -119 -69 -328 86 -394 51
-22 139 -20 192 4 234 105 174 451 -80 468 -31 2 -67 0 -81 -5z"/>
<path d="M1679 2016 c-97 -34 -159 -125 -159 -230 0 -144 102 -246 245 -246
66 0 108 16 159 60 46 41 75 97 83 158 20 175 -161 318 -328 258z"/>
<path d="M2395 1256 c-126 -58 -176 -208 -112 -333 104 -203 407 -163 458 60
44 197 -162 359 -346 273z"/>
</g>
</svg>
