<?xml version="1.0" standalone="no"?>
<!DOCTYPE svg PUBLIC "-//W3C//DTD SVG 20010904//EN"
 "http://www.w3.org/TR/2001/REC-SVG-20010904/DTD/svg10.dtd">
<svg version="1.0" xmlns="http://www.w3.org/2000/svg"
 width="353.000000pt" height="355.000000pt" viewBox="0 0 353.000000 355.000000"
 preserveAspectRatio="xMidYMid meet">

<g transform="translate(0.000000,355.000000) scale(0.100000,-0.100000)"
fill="#000000" stroke="none">
<path d="M301 3534 c-122 -33 -218 -113 -272 -227 l-29 -63 2 -1480 3 -1479
24 -48 c40 -80 113 -152 199 -194 l76 -38 1435 -3 c1407 -2 1437 -2 1501 17
73 22 163 82 202 133 14 18 38 58 54 88 l29 55 0 1475 0 1475 -27 58 c-52 111
-161 201 -283 233 -77 21 -2837 19 -2914 -2z m2887 -229 c49 -21 81 -52 103
-100 18 -38 19 -100 19 -1430 l0 -1391 -22 -44 c-13 -24 -40 -58 -61 -74 l-39
-31 -1401 -3 c-954 -2 -1414 0 -1438 8 -49 14 -86 44 -109 91 -20 37 -20 65
-20 1447 l0 1408 29 45 c18 30 44 53 72 67 l44 22 1393 0 c1234 0 1397 -2
1430 -15z"/>
<path d="M951 2817 c-119 -46 -187 -185 -149 -309 16 -56 88 -133 143 -153
108 -42 239 2 299 99 54 87 46 215 -18 287 -49 56 -101 81 -174 85 -39 2 -81
-2 -101 -9z"/>
<path d="M2390 2810 c-98 -46 -144 -118 -144 -225 0 -84 23 -135 85 -189 54
-46 96 -59 174 -54 147 9 254 147 224 290 -15 67 -60 132 -114 164 -65 37
-161 44 -225 14z"/>
<path d="M935 1187 c-116 -56 -170 -177 -133 -299 16 -56 88 -133 143 -153 67
-26 160 -17 221 21 129 79 154 269 50 376 -74 76 -191 98 -281 55z"/>
<path d="M2390 1189 c-56 -25 -95 -62 -123 -114 -30 -56 -30 -164 0 -220 27
-51 78 -100 125 -119 79 -34 204 -11 266 47 43 40 74 115 74 179 0 179 -182
300 -342 227z"/>
</g>
</svg>
