<?xml version="1.0" standalone="no"?>
<!DOCTYPE svg PUBLIC "-//W3C//DTD SVG 20010904//EN"
 "http://www.w3.org/TR/2001/REC-SVG-20010904/DTD/svg10.dtd">
<svg version="1.0" xmlns="http://www.w3.org/2000/svg"
 width="357.000000pt" height="356.000000pt" viewBox="0 0 357.000000 356.000000"
 preserveAspectRatio="xMidYMid meet">

<g transform="translate(0.000000,356.000000) scale(0.100000,-0.100000)"
fill="#000000" stroke="none">
<path d="M320 3531 c-146 -45 -262 -168 -294 -311 -14 -61 -16 -231 -16 -1447
0 -1498 -1 -1464 55 -1560 56 -95 126 -154 228 -192 l58 -21 1433 0 c1594 0
1481 -5 1593 70 74 49 137 133 163 217 20 64 20 93 20 1483 0 1393 0 1419 -20
1483 -34 110 -117 202 -230 256 l-55 26 -1455 2 c-800 1 -1466 -2 -1480 -6z
m2904 -236 c22 -11 54 -37 70 -58 l31 -39 0 -1428 0 -1428 -31 -39 c-16 -21
-48 -47 -70 -58 -38 -20 -59 -20 -1439 -20 l-1400 0 -47 27 c-34 21 -53 41
-72 80 l-26 52 0 1385 0 1386 24 51 c25 54 70 90 130 105 17 4 652 6 1411 6
1359 -2 1381 -2 1419 -22z"/>
<path d="M1000 2821 c-50 -16 -87 -40 -122 -79 -83 -92 -83 -232 0 -324 115
-127 312 -109 397 36 70 120 25 281 -96 344 -49 25 -138 37 -179 23z"/>
<path d="M2450 2821 c-112 -34 -181 -126 -181 -240 -1 -168 152 -284 312 -237
234 68 238 402 5 471 -53 16 -96 18 -136 6z"/>
<path d="M1708 2004 c-92 -28 -168 -134 -168 -234 0 -103 75 -206 171 -234 66
-20 82 -20 148 0 230 68 230 400 0 468 -63 19 -89 19 -151 0z"/>
<path d="M1000 1201 c-50 -16 -87 -40 -122 -79 -83 -92 -83 -232 0 -324 115
-127 312 -109 397 36 70 120 25 281 -96 344 -49 25 -138 37 -179 23z"/>
<path d="M2450 1201 c-111 -34 -182 -128 -182 -241 0 -167 154 -283 313 -236
234 68 238 402 5 471 -53 16 -96 18 -136 6z"/>
</g>
</svg>
