<?xml version="1.0" standalone="no"?>
<!DOCTYPE svg PUBLIC "-//W3C//DTD SVG 20010904//EN"
 "http://www.w3.org/TR/2001/REC-SVG-20010904/DTD/svg10.dtd">
<svg version="1.0" xmlns="http://www.w3.org/2000/svg"
 width="352.000000pt" height="352.000000pt" viewBox="0 0 352.000000 352.000000"
 preserveAspectRatio="xMidYMid meet">

<g transform="translate(0.000000,352.000000) scale(0.100000,-0.100000)"
fill="#000000" stroke="none">
<path d="M259 3505 c-94 -34 -182 -118 -230 -218 l-29 -62 0 -1466 0 -1466 35
-71 c40 -80 115 -156 192 -193 l48 -24 1478 -3 1479 -2 63 30 c82 39 175 136
204 215 21 56 21 58 21 1521 l0 1466 -29 62 c-38 79 -119 159 -197 197 l-62
29 -1468 -1 c-1196 0 -1476 -3 -1505 -14z m2968 -241 c21 -16 47 -48 58 -70
20 -38 20 -59 20 -1434 0 -1391 0 -1395 -21 -1434 -11 -22 -37 -54 -58 -70
l-38 -31 -1414 -3 c-1374 -2 -1415 -2 -1452 17 -46 23 -67 46 -87 94 -13 32
-15 198 -15 1429 0 1330 1 1395 19 1433 20 44 41 66 86 89 27 14 176 16 1447
13 l1416 -2 39 -31z"/>
<path d="M983 2811 c-252 -63 -254 -421 -2 -481 116 -28 239 35 285 146 17 41
18 123 2 175 -32 109 -173 188 -285 160z"/>
<path d="M2418 2806 c-61 -17 -111 -56 -145 -114 -24 -40 -28 -58 -28 -123 0
-67 4 -81 30 -124 105 -170 348 -159 431 20 89 190 -86 398 -288 341z"/>
<path d="M957 1994 c-144 -44 -211 -232 -130 -363 85 -137 267 -158 382 -43
67 67 88 157 60 256 -16 58 -93 131 -160 150 -64 19 -89 19 -152 0z"/>
<path d="M2410 1995 c-143 -45 -212 -213 -142 -346 94 -180 340 -180 434 0 71
136 1 302 -146 346 -60 18 -87 18 -146 0z"/>
<path d="M962 1186 c-93 -31 -159 -112 -169 -209 -17 -166 131 -300 294 -267
112 24 193 125 193 242 0 69 -16 111 -60 162 -63 72 -168 101 -258 72z"/>
<path d="M2410 1185 c-149 -46 -216 -229 -133 -363 101 -163 336 -154 425 17
71 136 1 302 -146 346 -60 18 -87 18 -146 0z"/>
</g>
</svg>
